<svg id="mouse" width="23.731" height="20.428" viewBox="0 0 23.731 20.428" xmlns="http://www.w3.org/2000/svg">
	<path id="path4" d="m15.545 17.832c2.4636-3.0234 2.0186-7.3848-1.0048-9.8484l-3.1009-2.5267c-3.0234-2.4636-7.3848-2.0186-9.8484 1.0048s-2.0186 7.3848 1.0048 9.8484l3.1009 2.5267c3.0234 2.4636 7.3848 2.0186 9.8484-1.0048zm-6.8335-4.2782c-.46514-.37901-.52256-.94177-.14355-1.4069.37901-.46514.94177-.52256 1.4069-.14355l3.1009 2.5267c.46514.37901.52256.94177.14355 1.4069-.37901.46514-.94177.52256-1.4069.14355z" style="fill:#bada55"/>
	<path id="path6" d="m15.545 17.832c.22359-.55678.74384-.77891 1.3006-.55531 1.7631.70805 3.8441-.18045 4.5522-1.9436s-.18045-3.8441-1.9436-4.5522l-.46398-.18633c-2.7839-1.118-4.1722-4.3695-3.0542-7.1534s4.3695-4.1722 7.1534-3.0542c.55678.22359.77891.74384.55531 1.3006-.22359.55678-.74384.77891-1.3006.55531-1.7631-.70805-3.8441.18045-4.5522 1.9436s.18045 3.8441 1.9436 4.5522l.46398.18633c2.7839 1.118 4.1722 4.3695 3.0542 7.1534s-4.3695 4.1722-7.1534 3.0542c-.55678-.22359-.77891-.74384-.55531-1.3006z" style="fill:#bada55"/>
</svg>
